<?xml version="1.0" encoding="UTF-8"?>
<svg version="1.1" xmlns="http://www.w3.org/2000/svg" width="1024" height="350">
<path d="M0 0 C337.92 0 675.84 0 1024 0 C1024 115.5 1024 231 1024 350 C686.08 350 348.16 350 0 350 C0 234.5 0 119 0 0 Z " fill="#FEFEFE" transform="translate(0,0)"/>
<path d="M0 0 C64.68 0 129.36 0 196 0 C189.23816912 7.88880269 189.23816912 7.88880269 185.9765625 11.15625 C185.265 11.86910156 184.5534375 12.58195312 183.8203125 13.31640625 C183.09585938 14.03699219 182.37140625 14.75757812 181.625 15.5 C180.90828125 16.22058594 180.1915625 16.94117187 179.453125 17.68359375 C176.0496026 21.08097261 172.61266002 24.38416489 168.96875 27.5234375 C164.72117918 31.18394569 160.80007979 35.12429247 156.875 39.125 C155.52073145 40.50506414 154.16400421 41.88272035 152.8046875 43.2578125 C152.21671387 43.8573877 151.62874023 44.45696289 151.02294922 45.07470703 C141.30489836 54.32362679 142.60693741 52 126 52 C126 97.21 126 142.42 126 189 C84.42 189 42.84 189 0 189 C3.89129652 184.46015406 7.25195655 180.69764191 11.625 176.8125 C15.96663419 172.9140572 20.15320078 168.90481277 24.25 164.75 C27.34579483 161.61435782 30.44347132 158.53261926 33.8125 155.6875 C37.93703962 152.1855324 41.69571499 148.34135478 45.5 144.5 C53.36713387 136.55620709 53.36713387 136.55620709 57.1875 133.3125 C57.72793945 132.81782227 58.26837891 132.32314453 58.82519531 131.81347656 C61 130 61 130 63.95336914 128.23803711 C69.16929072 124.43897188 72.36321867 121.14162071 73.67831421 114.6534729 C74.71355351 104.53820264 74.42364545 94.40678718 74.25 84.25 C74.12625 68.28625 74.12625 68.28625 74 52 C49.58 52 25.16 52 0 52 C0 34.84 0 17.68 0 0 Z " fill="#FDC864" transform="translate(108,95)"/>
<path d="M0 0 C0.66 0 1.32 0 2 0 C2 39.6 2 79.2 2 120 C-39.58 120 -81.16 120 -124 120 C-120.10870348 115.46015406 -116.74804345 111.69764191 -112.375 107.8125 C-108.03336581 103.9140572 -103.84679922 99.90481277 -99.75 95.75 C-96.65420517 92.61435782 -93.55652868 89.53261926 -90.1875 86.6875 C-85.3891342 82.61341583 -81.03325823 78.08351998 -76.62963867 73.5925293 C-73.52522226 70.44546867 -70.38144493 67.41686712 -67.03125 64.53125 C-62.8076119 60.88933509 -58.90341837 56.97965701 -55 53 C-50.47021287 48.38174047 -45.87040516 43.9680272 -40.96875 39.74609375 C-37.66244487 36.81371599 -34.59281466 33.65416241 -31.5 30.5 C-23.69367557 22.60956187 -23.69367557 22.60956187 -19.9375 19.4375 C-17.33860859 17.21245908 -14.87416483 14.92055051 -12.48046875 12.4765625 C-11.8469751 11.83533447 -11.21348145 11.19410645 -10.56079102 10.53344727 C-9.28440746 9.23388308 -8.01263685 7.92976983 -6.74584961 6.62084961 C-5.87005249 5.72765015 -5.87005249 5.72765015 -4.9765625 4.81640625 C-4.45143066 4.27443604 -3.92629883 3.73246582 -3.38525391 3.17407227 C-2 2 -2 2 0 2 C0 1.34 0 0.68 0 0 Z " fill="#FEAE19" transform="translate(232,164)"/>
<path d="M0 0 C8.18115596 6.72887975 13.313857 15.39028361 14.76953125 25.91015625 C16.09095184 42.4174261 14.52433787 56.43158934 4.703125 70.234375 C-1.59618773 76.68018338 -8.71944287 79.93431181 -17.796875 80.28515625 C-19.52598568 80.2996093 -21.25521596 80.30332709 -22.984375 80.296875 C-23.84804688 80.31298828 -24.71171875 80.32910156 -25.6015625 80.34570312 C-26.87386719 80.34666992 -26.87386719 80.34666992 -28.171875 80.34765625 C-28.92855469 80.35063721 -29.68523438 80.35361816 -30.46484375 80.35668945 C-32.984375 79.984375 -32.984375 79.984375 -39.984375 76.984375 C-39.984375 87.544375 -39.984375 98.104375 -39.984375 108.984375 C-47.904375 108.984375 -55.824375 108.984375 -63.984375 108.984375 C-63.984375 71.694375 -63.984375 34.404375 -63.984375 -4.015625 C-19.20566687 -12.97136663 -19.20566687 -12.97136663 0 0 Z " fill="#020202" transform="translate(798.984375,160.015625)"/>
<path d="M0 0 C8.51347722 5.83507989 13.52285012 14.10056522 15.9609375 24.0546875 C17.03979492 31.52370039 16.7734375 39.13315937 16.7734375 46.6796875 C-1.3765625 46.6796875 -19.5265625 46.6796875 -38.2265625 46.6796875 C-37.2365625 49.3196875 -36.2465625 51.9596875 -35.2265625 54.6796875 C-34.8965625 55.6696875 -34.5665625 56.6596875 -34.2265625 57.6796875 C-31.8834816 58.80054062 -31.8834816 58.80054062 -29.2265625 59.6796875 C-28.61264648 60.02354492 -27.99873047 60.36740234 -27.36621094 60.72167969 C-24.85433608 61.84634844 -23.04964445 61.93802592 -20.3046875 61.9453125 C-18.88929688 61.94917969 -18.88929688 61.94917969 -17.4453125 61.953125 C-16.465625 61.94539063 -15.4859375 61.93765625 -14.4765625 61.9296875 C-13.51234375 61.93742187 -12.548125 61.94515625 -11.5546875 61.953125 C-5.73708259 61.93731629 -0.82111384 61.23236034 4.7734375 59.6796875 C6.0934375 59.6796875 7.4134375 59.6796875 8.7734375 59.6796875 C10.09731979 66.10997291 11.02138152 72.1091709 10.7734375 78.6796875 C1.94251611 83.7923262 -7.68935051 84.04254543 -17.6640625 84.0546875 C-19.24670898 84.09142578 -19.24670898 84.09142578 -20.86132812 84.12890625 C-32.95835069 84.17357218 -43.23934036 80.08933684 -52.1640625 71.90234375 C-62.51393088 60.9948316 -63.82180322 47.91880583 -63.56640625 33.55859375 C-63.00738709 21.6660989 -57.74466397 11.77295926 -49.12890625 3.71875 C-35.24920902 -7.88438313 -15.63413717 -9.27076906 0 0 Z " fill="#030303" transform="translate(892.2265625,157.3203125)"/>
<path d="M0 0 C0.91475098 -0.00515625 1.82950195 -0.0103125 2.77197266 -0.015625 C12.48584807 0.08387692 22.15888768 1.95356097 29.234375 9.13671875 C36.38117666 18.14098123 36.86197455 26.48881984 36.73046875 37.65625 C36.72486365 39.03486669 36.72059788 40.41348942 36.71760559 41.79211426 C36.70622857 45.39580189 36.67682457 48.99911862 36.64349365 52.60266113 C36.61263727 56.28974391 36.59906722 59.97688744 36.58398438 63.6640625 C36.55194662 70.88037622 36.50083872 78.09638586 36.4375 85.3125 C32.67665551 85.98418273 28.91290644 86.63802657 25.1484375 87.2890625 C24.09906006 87.47670166 23.04968262 87.66434082 21.96850586 87.85766602 C6.53323107 90.50252442 -12.76030382 92.27776582 -26.5625 83.3125 C-29.375 80.8125 -29.375 80.8125 -31.5625 78.3125 C-32.119375 77.69375 -32.67625 77.075 -33.25 76.4375 C-37.37800895 69.75405693 -37.32571092 61.93518686 -36.5625 54.3125 C-34.54822916 47.50753095 -30.21360364 43.07990243 -24.375 39.1875 C-12.50364534 32.96073402 0.47129663 33.20527953 13.4375 35.3125 C12.4772781 29.17869542 12.4772781 29.17869542 9.5625 23.8125 C4.84171276 20.48017959 -0.69671444 21.12906834 -6.25 21.125 C-7.54067383 21.10663086 -7.54067383 21.10663086 -8.85742188 21.08789062 C-14.72123993 21.07463407 -19.88081915 21.85610157 -25.5625 23.3125 C-27.84834898 16.75973293 -28.16844368 10.20848561 -28.5625 3.3125 C-19.02020003 1.1863642 -9.79178945 0.01323886 0 0 Z " fill="#030303" transform="translate(676.5625,151.6875)"/>
<path d="M0 0 C0.91475098 -0.00515625 1.82950195 -0.0103125 2.77197266 -0.015625 C12.48584807 0.08387692 22.15888768 1.95356097 29.234375 9.13671875 C36.38117666 18.14098123 36.86197455 26.48881984 36.73046875 37.65625 C36.72486365 39.03486669 36.72059788 40.41348942 36.71760559 41.79211426 C36.70622857 45.39580189 36.67682457 48.99911862 36.64349365 52.60266113 C36.61263727 56.28974391 36.59906722 59.97688744 36.58398438 63.6640625 C36.55194662 70.88037622 36.50083872 78.09638586 36.4375 85.3125 C32.67665551 85.98418273 28.91290644 86.63802657 25.1484375 87.2890625 C24.09906006 87.47670166 23.04968262 87.66434082 21.96850586 87.85766602 C6.53323107 90.50252442 -12.76030382 92.27776582 -26.5625 83.3125 C-29.375 80.8125 -29.375 80.8125 -31.5625 78.3125 C-32.119375 77.69375 -32.67625 77.075 -33.25 76.4375 C-37.37800895 69.75405693 -37.32571092 61.93518686 -36.5625 54.3125 C-34.54822916 47.50753095 -30.21360364 43.07990243 -24.375 39.1875 C-12.50364534 32.96073402 0.47129663 33.20527953 13.4375 35.3125 C12.4772781 29.17869542 12.4772781 29.17869542 9.5625 23.8125 C4.84171276 20.48017959 -0.69671444 21.12906834 -6.25 21.125 C-7.54067383 21.10663086 -7.54067383 21.10663086 -8.85742188 21.08789062 C-14.72123993 21.07463407 -19.88081915 21.85610157 -25.5625 23.3125 C-27.84834898 16.75973293 -28.16844368 10.20848561 -28.5625 3.3125 C-19.02020003 1.1863642 -9.79178945 0.01323886 0 0 Z " fill="#030303" transform="translate(431.5625,151.6875)"/>
<path d="M0 0 C1.00554932 0.00580078 2.01109863 0.01160156 3.04711914 0.01757812 C11.29773818 0.16002347 18.96451103 1.25894605 26.9375 3.375 C25.94068287 9.83310245 24.92113508 16.14071832 22.9375 22.375 C21.49958484 22.23331863 20.0621763 22.08648957 18.625 21.9375 C17.82449219 21.85628906 17.02398438 21.77507812 16.19921875 21.69140625 C13.9375 21.375 13.9375 21.375 10.9375 20.375 C8.44312103 20.22743719 5.99487022 20.14413611 3.5 20.125 C2.18128906 20.09921875 0.86257813 20.0734375 -0.49609375 20.046875 C-4.1597578 20.38394814 -5.54537532 20.76418582 -8.0625 23.375 C-9.06355392 25.78475689 -9.06355392 25.78475689 -8.0625 28.375 C-3.03345912 32.41892901 3.03299076 34.85260102 8.9375 37.3125 C18.01143264 41.24182866 25.94881337 44.68495011 29.9375 54.375 C30.47155594 57.21204429 30.51160194 59.93218996 30.4375 62.8125 C30.42541504 63.56241211 30.41333008 64.31232422 30.40087891 65.08496094 C30.13472657 72.48238278 28.43677065 76.81760677 23.25 82.125 C13.91469557 89.10290432 3.82119799 89.55522694 -7.4375 89.5625 C-8.9225 89.58086914 -8.9225 89.58086914 -10.4375 89.59960938 C-19.45057975 89.61744528 -26.90386022 88.19393777 -35.0625 84.375 C-34.58592708 81.77033418 -34.10635281 79.16628286 -33.625 76.5625 C-33.42293945 75.45551758 -33.42293945 75.45551758 -33.21679688 74.32617188 C-32.64830263 71.26184924 -32.04940349 68.33571047 -31.0625 65.375 C-29.92554688 65.66375 -28.78859375 65.9525 -27.6171875 66.25 C-11.72361401 70.64309951 -11.72361401 70.64309951 3.82421875 67.84765625 C4.52160156 67.36167969 5.21898437 66.87570313 5.9375 66.375 C6.23378737 63.52965796 6.23378737 63.52965796 4.9375 60.375 C1.34452452 57.74718046 -2.90128254 56.2732252 -6.98925781 54.57421875 C-27.68545389 45.93683535 -27.68545389 45.93683535 -32.0625 35.375 C-32.6271961 32.37500889 -32.68380983 29.484105 -32.625 26.4375 C-32.61404297 25.63989258 -32.60308594 24.84228516 -32.59179688 24.02050781 C-32.37001506 18.02500613 -31.55007124 13.64525544 -27.0625 9.375 C-18.90943092 1.84775285 -10.84873531 -0.15136513 0 0 Z " fill="#030303" transform="translate(520.0625,151.625)"/>
<path d="M0 0 C0 8.25 0 16.5 0 25 C9.57 25 19.14 25 29 25 C29 31.6 29 38.2 29 45 C19.43 45 9.86 45 0 45 C0.07423893 49.99960762 0.15727827 54.99750366 0.26245117 59.99633789 C0.29557083 61.69448786 0.32364261 63.39274448 0.34643555 65.09106445 C0.38022169 67.54163787 0.43254639 69.99124531 0.48828125 72.44140625 C0.49467117 73.19273331 0.5010611 73.94406036 0.50764465 74.71815491 C0.64781302 79.8182366 1.57852583 83.48022437 4 88 C7.82907487 90.55271658 10.94583912 90.25857606 15.375 90.1875 C16.50808594 90.1865332 16.50808594 90.1865332 17.6640625 90.18554688 C21.56788467 90.15483499 25.18892377 89.94897317 29 89 C30.62849969 93.35590568 31.34118446 97.23934612 31.625 101.875 C31.69976562 103.02742188 31.77453125 104.17984375 31.8515625 105.3671875 C31.90054688 106.23601562 31.94953125 107.10484375 32 108 C20.84910249 113.07683139 8.20371654 113.95367749 -3.70703125 111.1171875 C-10.95097468 108.36540019 -16.73926497 104.49373098 -20.2734375 97.46875 C-21.29773621 94.99880985 -22.20482156 92.5522663 -23 90 C-23.17764389 89.45841248 -23.35528778 88.91682495 -23.53831482 88.35882568 C-24.21678115 84.89242935 -24.13012755 81.44425231 -24.11352539 77.92675781 C-24.11374443 76.71156212 -24.11374443 76.71156212 -24.1139679 75.47181702 C-24.11327224 72.79889227 -24.10549606 70.12603755 -24.09765625 67.453125 C-24.09579084 65.59796181 -24.09436752 63.74279813 -24.09336853 61.88763428 C-24.08955305 57.00830726 -24.07973102 52.12901007 -24.06866455 47.24969482 C-24.05842961 42.2693319 -24.05386644 37.28896416 -24.04882812 32.30859375 C-24.0381079 22.5390494 -24.02104309 12.76952718 -24 3 C-20.93852743 2.49357075 -17.87567701 1.99600678 -14.8125 1.5 C-13.94818359 1.35691406 -13.08386719 1.21382812 -12.19335938 1.06640625 C-11.35224609 0.93105469 -10.51113281 0.79570312 -9.64453125 0.65625 C-8.87471924 0.53056641 -8.10490723 0.40488281 -7.31176758 0.27539062 C-5 0 -5 0 0 0 Z " fill="#020202" transform="translate(355,129)"/>
<path d="M0 0 C0.95471191 0.00773438 1.90942383 0.01546875 2.89306641 0.0234375 C10.68593869 0.21341102 16.88826166 1.65151675 24.1875 4.5 C22.8675 10.44 21.5475 16.38 20.1875 22.5 C15.46043134 23.44541373 14.49045822 23.32950205 10.26953125 21.99609375 C3.49029602 20.38077879 -3.1154909 20.77429673 -9.1640625 24.3046875 C-13.59266465 27.51594877 -16.59239994 32.18637584 -17.8125 37.5 C-18.48183074 45.61337401 -18.72191141 53.22040635 -14.8125 60.5 C-11.64692486 64.2337553 -8.63883675 67.16186039 -3.64941406 67.75878906 C-2.88338867 67.76104492 -2.11736328 67.76330078 -1.328125 67.765625 C-0.47476563 67.76820313 0.37859375 67.77078125 1.2578125 67.7734375 C2.14210938 67.76570313 3.02640625 67.75796875 3.9375 67.75 C4.80632813 67.75773437 5.67515625 67.76546875 6.5703125 67.7734375 C12.10837392 67.75680668 16.87180847 67.05762124 22.1875 65.5 C23.82756048 72.16957927 24.70108785 78.65182898 25.1875 85.5 C11.55058409 91.70867716 -5.79806619 91.62959249 -19.8125 86.5 C-30.33737852 81.72812711 -36.25177372 74.63382558 -40.8671875 64.2109375 C-44.68710517 53.25629758 -44.98712036 37.27652935 -40.5625 26.5 C-39.69729581 24.80604685 -38.7874216 23.13327384 -37.8125 21.5 C-37.1525 20.365625 -36.4925 19.23125 -35.8125 18.0625 C-26.57394147 6.22559688 -15.08254912 -0.29797945 0 0 Z " fill="#030303" transform="translate(607.8125,151.5)"/>
<path d="M0 0 C19.92857143 0 19.92857143 0 25.6875 5.625 C31.18179455 12.85620057 31.81524635 21.19304299 31 30 C29.95974144 36.66327779 28.0933529 40.78080356 22.71875 44.94140625 C19.25991483 47.07173428 16.15278142 47.1901467 12.1875 47.25 C10.66189453 47.28867188 10.66189453 47.28867188 9.10546875 47.328125 C6 47 6 47 0 44 C0 29.48 0 14.96 0 0 Z " fill="#FAFAFA" transform="translate(759,173)"/>
<path d="M0 0 C1.54300781 -0.00386719 1.54300781 -0.00386719 3.1171875 -0.0078125 C6.125 0.125 6.125 0.125 11.125 1.125 C11.125 7.395 11.125 13.665 11.125 20.125 C8.11375 20.2075 5.1025 20.29 2 20.375 C1.06269043 20.41141602 0.12538086 20.44783203 -0.84033203 20.48535156 C-6.32593101 20.55779185 -9.60328748 19.91904498 -13.875 16.125 C-15.09914155 12.45257535 -15.34059007 9.9827463 -14.875 6.125 C-10.81508632 1.08865138 -6.19426129 -0.01544704 0 0 Z " fill="#F9F9F9" transform="translate(678.875,201.875)"/>
<path d="M0 0 C1.54300781 -0.00386719 1.54300781 -0.00386719 3.1171875 -0.0078125 C6.125 0.125 6.125 0.125 11.125 1.125 C11.125 7.395 11.125 13.665 11.125 20.125 C8.11375 20.2075 5.1025 20.29 2 20.375 C1.06269043 20.41141602 0.12538086 20.44783203 -0.84033203 20.48535156 C-6.32593101 20.55779185 -9.60328748 19.91904498 -13.875 16.125 C-15.09914155 12.45257535 -15.34059007 9.9827463 -14.875 6.125 C-10.81508632 1.08865138 -6.19426129 -0.01544704 0 0 Z " fill="#F9F9F9" transform="translate(433.875,201.875)"/>
<path d="M0 0 C3.5029138 1.74061196 6.00153817 3.62177822 8 7 C8.33 9.97 8.66 12.94 9 16 C-1.23 16 -11.46 16 -22 16 C-20.80769231 7.65384615 -20.80769231 7.65384615 -17 3 C-11.59129849 -0.87793693 -6.45322241 -1.14223704 0 0 Z " fill="#F8F8F8" transform="translate(876,172)"/>
</svg>
